PathFileType	4	(X / Y / Z)	Demo_140508_11_September_2019	Demo_140508_11_September_2019.trc
DataRate	CameraRate	NumFrames	NumMarkers	Units	OrigDataRate	OrigDataStartFrame	OrigNumFrames
50	50	19	25	m	50	50	3585
Frame#	Time		SpineBase		SpineMid		Neck		Head		ShoulderLeft		ElbowLeft		WristLeft		HandLeft		ShoulderRight		ElbowRight		WristRight		HandRight		HipLeft		KneeLeft		AnkleLeft		FootLeft		HipRight		KneeRight		AnkleRight		FootRight		SpineShoulder		HandTipLeft		LeftThumb		HandTipRight		ThumbRight		
X1	Y1	Z1	X2	Y2	Z2	X3	Y3	Z3	X4	Y4	Z4	X5	Y5	Z5	X6	Y6	Z6	X7	Y7	Z7	X8	Y8	Z8	X9	Y9	Z9	X10	Y10	Z10	X11	Y11	Z11	X12	Y12	Z12	X13	Y13	Z13	X14	Y14	Z14	X15	Y15	Z15	X16	Y16	Z16	X17	Y17	Z17	X18	Y18	Z18	X19	Y19	Z19	X20	Y20	Z20	X21	Y21	Z21	X22	Y22	Z22	X23	Y23	Z23	X24	Y24	Z24	X25	Y25	Z25	
1	19.572	-0.020	0.772	1.800	-0.014	1.067	1.756	-0.008	1.351	1.698	-0.020	1.496	1.658	-0.156	1.243	1.685	-0.185	0.949	1.690	-0.227	0.725	1.678	-0.211	0.663	1.673	0.149	1.236	1.694	0.268	1.009	1.731	0.403	0.835	1.735	0.420	0.799	1.729	-0.088	0.777	1.764	-0.102	0.494	1.807	-0.087	0.172	1.911	-0.092	0.143	1.821	0.048	0.777	1.768	0.103	0.519	1.811	0.102	0.219	1.930	0.104	0.175	1.818	-0.009	1.282	1.715	-0.216	0.605	1.681	-0.205	0.675	1.642	0.439	0.734	1.737	0.410	0.773	1.695
2	19.589	-0.020	0.772	1.800	-0.014	1.067	1.756	-0.008	1.351	1.698	-0.020	1.496	1.658	-0.156	1.243	1.685	-0.185	0.949	1.690	-0.227	0.725	1.678	-0.211	0.663	1.673	0.149	1.236	1.694	0.268	1.009	1.731	0.403	0.835	1.735	0.420	0.799	1.729	-0.088	0.777	1.764	-0.102	0.494	1.807	-0.087	0.172	1.911	-0.092	0.143	1.821	0.048	0.777	1.768	0.103	0.519	1.811	0.102	0.219	1.930	0.104	0.175	1.818	-0.009	1.282	1.715	-0.216	0.605	1.681	-0.205	0.675	1.642	0.439	0.734	1.737	0.410	0.773	1.695
3	19.606	-0.020	0.772	1.800	-0.014	1.067	1.756	-0.008	1.351	1.698	-0.020	1.496	1.658	-0.156	1.243	1.685	-0.185	0.949	1.690	-0.227	0.725	1.678	-0.211	0.663	1.673	0.149	1.236	1.694	0.268	1.009	1.731	0.403	0.835	1.735	0.420	0.799	1.729	-0.088	0.777	1.764	-0.102	0.494	1.807	-0.087	0.172	1.911	-0.092	0.143	1.821	0.048	0.777	1.768	0.103	0.519	1.811	0.102	0.219	1.930	0.104	0.175	1.818	-0.009	1.282	1.715	-0.216	0.605	1.681	-0.205	0.675	1.642	0.439	0.734	1.737	0.410	0.773	1.695
4	19.623	-0.020	0.772	1.800	-0.014	1.067	1.756	-0.008	1.351	1.698	-0.020	1.496	1.658	-0.156	1.243	1.685	-0.185	0.949	1.690	-0.227	0.725	1.678	-0.211	0.663	1.673	0.149	1.236	1.694	0.268	1.009	1.731	0.403	0.835	1.735	0.420	0.799	1.729	-0.088	0.777	1.764	-0.102	0.494	1.807	-0.087	0.172	1.911	-0.092	0.143	1.821	0.048	0.777	1.768	0.103	0.519	1.811	0.102	0.219	1.930	0.104	0.175	1.818	-0.009	1.282	1.715	-0.216	0.605	1.681	-0.205	0.675	1.642	0.439	0.734	1.737	0.410	0.773	1.695
5	19.639	-0.020	0.772	1.800	-0.014	1.067	1.756	-0.008	1.351	1.698	-0.020	1.496	1.658	-0.156	1.243	1.685	-0.185	0.949	1.690	-0.227	0.725	1.678	-0.211	0.663	1.673	0.149	1.236	1.694	0.268	1.009	1.731	0.403	0.835	1.735	0.420	0.799	1.729	-0.088	0.777	1.764	-0.102	0.494	1.807	-0.087	0.172	1.911	-0.092	0.143	1.821	0.048	0.777	1.768	0.103	0.519	1.811	0.102	0.219	1.930	0.104	0.175	1.818	-0.009	1.282	1.715	-0.216	0.605	1.681	-0.205	0.675	1.642	0.439	0.734	1.737	0.410	0.773	1.695
6	19.656	-0.020	0.772	1.800	-0.014	1.067	1.756	-0.008	1.351	1.698	-0.020	1.496	1.658	-0.156	1.243	1.685	-0.185	0.949	1.690	-0.227	0.725	1.678	-0.211	0.663	1.673	0.149	1.236	1.694	0.268	1.009	1.731	0.403	0.835	1.735	0.420	0.799	1.729	-0.088	0.777	1.764	-0.102	0.494	1.807	-0.087	0.172	1.911	-0.092	0.143	1.821	0.048	0.777	1.768	0.103	0.519	1.811	0.102	0.219	1.930	0.104	0.175	1.818	-0.009	1.282	1.715	-0.216	0.605	1.681	-0.205	0.675	1.642	0.439	0.734	1.737	0.410	0.773	1.695
7	19.673	-0.020	0.772	1.800	-0.014	1.067	1.756	-0.008	1.351	1.698	-0.020	1.496	1.658	-0.156	1.243	1.685	-0.185	0.949	1.690	-0.227	0.725	1.678	-0.211	0.663	1.673	0.149	1.236	1.694	0.268	1.009	1.731	0.403	0.835	1.735	0.420	0.799	1.729	-0.088	0.777	1.764	-0.102	0.494	1.807	-0.087	0.172	1.911	-0.092	0.143	1.821	0.048	0.777	1.768	0.103	0.519	1.811	0.102	0.219	1.930	0.104	0.175	1.818	-0.009	1.282	1.715	-0.216	0.605	1.681	-0.205	0.675	1.642	0.439	0.734	1.737	0.410	0.773	1.695
8	19.689	-0.020	0.772	1.800	-0.014	1.067	1.756	-0.008	1.351	1.698	-0.020	1.496	1.658	-0.156	1.243	1.685	-0.185	0.949	1.690	-0.227	0.725	1.678	-0.211	0.663	1.673	0.149	1.236	1.694	0.268	1.009	1.731	0.403	0.835	1.735	0.420	0.799	1.729	-0.088	0.777	1.764	-0.102	0.494	1.807	-0.087	0.172	1.911	-0.092	0.143	1.821	0.048	0.777	1.768	0.103	0.519	1.811	0.102	0.219	1.930	0.104	0.175	1.818	-0.009	1.282	1.715	-0.216	0.605	1.681	-0.205	0.675	1.642	0.439	0.734	1.737	0.410	0.773	1.695
9	19.706	0.024	0.774	1.799	0.026	1.068	1.760	0.029	1.351	1.708	0.019	1.495	1.666	-0.118	1.245	1.692	-0.138	0.954	1.657	-0.139	0.729	1.597	-0.128	0.709	1.569	0.186	1.234	1.700	0.296	1.003	1.736	0.424	0.825	1.737	0.442	0.791	1.727	-0.046	0.778	1.764	-0.091	0.498	1.801	-0.085	0.165	1.913	-0.092	0.137	1.831	0.094	0.779	1.767	0.115	0.525	1.815	0.102	0.221	1.930	0.104	0.178	1.816	0.028	1.282	1.723	-0.116	0.646	1.559	-0.118	0.671	1.600	0.455	0.730	1.735	0.423	0.766	1.695
10	19.723	0.024	0.774	1.799	0.026	1.068	1.760	0.029	1.351	1.708	0.019	1.495	1.666	-0.118	1.245	1.692	-0.138	0.954	1.657	-0.139	0.729	1.597	-0.128	0.709	1.569	0.186	1.234	1.700	0.296	1.003	1.736	0.424	0.825	1.737	0.442	0.791	1.727	-0.046	0.778	1.764	-0.091	0.498	1.801	-0.085	0.165	1.913	-0.092	0.137	1.831	0.094	0.779	1.767	0.115	0.525	1.815	0.102	0.221	1.930	0.104	0.178	1.816	0.028	1.282	1.723	-0.116	0.646	1.559	-0.118	0.671	1.600	0.455	0.730	1.735	0.423	0.766	1.695
11	19.739	0.047	0.776	1.798	0.045	1.068	1.762	0.045	1.351	1.712	0.041	1.495	1.670	-0.100	1.246	1.696	-0.114	0.961	1.644	-0.085	0.755	1.535	-0.079	0.737	1.512	0.202	1.234	1.704	0.311	1.000	1.739	0.437	0.820	1.738	0.456	0.786	1.726	-0.026	0.779	1.763	-0.084	0.502	1.794	-0.082	0.160	1.914	-0.091	0.134	1.840	0.117	0.781	1.765	0.125	0.529	1.816	0.102	0.223	1.929	0.104	0.180	1.813	0.045	1.282	1.727	-0.048	0.689	1.479	-0.073	0.689	1.568	0.469	0.726	1.733	0.434	0.761	1.694
12	19.756	0.047	0.776	1.798	0.045	1.068	1.762	0.045	1.351	1.712	0.041	1.495	1.670	-0.100	1.246	1.696	-0.114	0.961	1.644	-0.085	0.755	1.535	-0.079	0.737	1.512	0.202	1.234	1.704	0.311	1.000	1.739	0.437	0.820	1.738	0.456	0.786	1.726	-0.026	0.779	1.763	-0.084	0.502	1.794	-0.082	0.160	1.914	-0.091	0.134	1.840	0.117	0.781	1.765	0.125	0.529	1.816	0.102	0.223	1.929	0.104	0.180	1.813	0.045	1.282	1.727	-0.048	0.689	1.479	-0.073	0.689	1.568	0.469	0.726	1.733	0.434	0.761	1.694
13	19.773	0.059	0.777	1.797	0.055	1.069	1.763	0.055	1.351	1.715	0.057	1.494	1.673	-0.091	1.247	1.698	-0.099	0.970	1.641	-0.083	0.776	1.528	-0.063	0.762	1.499	0.213	1.233	1.706	0.320	0.999	1.740	0.447	0.817	1.737	0.466	0.784	1.724	-0.015	0.780	1.762	-0.079	0.507	1.788	-0.080	0.156	1.915	-0.091	0.131	1.846	0.129	0.782	1.764	0.131	0.532	1.816	0.102	0.225	1.929	0.104	0.182	1.812	0.055	1.282	1.729	-0.017	0.709	1.447	-0.040	0.710	1.558	0.480	0.724	1.731	0.443	0.757	1.693
14	19.790	0.059	0.777	1.797	0.055	1.069	1.763	0.055	1.351	1.715	0.057	1.494	1.673	-0.091	1.247	1.698	-0.099	0.970	1.641	-0.083	0.776	1.528	-0.063	0.762	1.499	0.213	1.233	1.706	0.320	0.999	1.740	0.447	0.817	1.737	0.466	0.784	1.724	-0.015	0.780	1.762	-0.079	0.507	1.788	-0.080	0.156	1.915	-0.091	0.131	1.846	0.129	0.782	1.764	0.131	0.532	1.816	0.102	0.225	1.929	0.104	0.182	1.812	0.055	1.282	1.729	-0.017	0.709	1.447	-0.040	0.710	1.558	0.480	0.724	1.731	0.443	0.757	1.693
15	19.806	0.067	0.777	1.796	0.062	1.069	1.763	0.061	1.350	1.717	0.067	1.494	1.676	-0.084	1.248	1.699	-0.092	0.979	1.644	-0.078	0.789	1.522	-0.060	0.790	1.505	0.220	1.233	1.708	0.327	0.998	1.741	0.454	0.816	1.737	0.483	0.768	1.721	-0.007	0.780	1.761	-0.074	0.511	1.782	-0.077	0.189	1.901	-0.078	0.154	1.806	0.137	0.782	1.763	0.136	0.535	1.815	0.102	0.226	1.928	0.104	0.183	1.810	0.061	1.282	1.731	-0.007	0.727	1.440	-0.022	0.727	1.559	0.492	0.716	1.729	0.468	0.752	1.691
16	19.823	0.072	0.778	1.795	0.067	1.069	1.764	0.066	1.350	1.719	0.074	1.494	1.677	-0.079	1.248	1.701	-0.089	0.986	1.651	-0.074	0.800	1.520	-0.057	0.802	1.510	0.225	1.233	1.709	0.332	0.997	1.742	0.460	0.815	1.736	0.489	0.765	1.719	-0.002	0.781	1.760	-0.070	0.514	1.778	-0.075	0.185	1.901	-0.078	0.150	1.808	0.143	0.783	1.761	0.140	0.538	1.813	0.103	0.228	1.928	0.104	0.184	1.810	0.066	1.282	1.732	-0.004	0.741	1.447	-0.016	0.762	1.573	0.499	0.712	1.727	0.483	0.753	1.689
17	19.840	0.072	0.778	1.795	0.067	1.069	1.764	0.066	1.350	1.719	0.074	1.494	1.677	-0.079	1.248	1.701	-0.089	0.986	1.651	-0.074	0.800	1.520	-0.057	0.802	1.510	0.225	1.233	1.709	0.332	0.997	1.742	0.460	0.815	1.736	0.489	0.765	1.719	-0.002	0.781	1.760	-0.070	0.514	1.778	-0.075	0.185	1.901	-0.078	0.150	1.808	0.143	0.783	1.761	0.140	0.538	1.813	0.103	0.228	1.928	0.104	0.184	1.810	0.066	1.282	1.732	-0.004	0.741	1.447	-0.016	0.762	1.573	0.499	0.712	1.727	0.483	0.753	1.689
18	19.856	0.076	0.778	1.793	0.071	1.069	1.764	0.069	1.350	1.720	0.080	1.493	1.679	-0.076	1.248	1.702	-0.089	0.991	1.658	-0.076	0.807	1.523	-0.060	0.809	1.524	0.228	1.232	1.710	0.336	0.996	1.742	0.465	0.814	1.735	0.497	0.760	1.717	0.002	0.781	1.759	-0.067	0.516	1.774	-0.073	0.198	1.895	-0.073	0.159	1.791	0.148	0.783	1.760	0.143	0.539	1.811	0.103	0.229	1.927	0.105	0.185	1.809	0.070	1.282	1.733	-0.015	0.749	1.470	-0.021	0.790	1.596	0.507	0.708	1.727	0.499	0.746	1.687
19	19.873	0.076	0.778	1.793	0.071	1.069	1.764	0.069	1.350	1.720	0.080	1.493	1.679	-0.076	1.248	1.702	-0.089	0.991	1.658	-0.076	0.807	1.523	-0.060	0.809	1.524	0.228	1.232	1.710	0.336	0.996	1.742	0.465	0.814	1.735	0.497	0.760	1.717	0.002	0.781	1.759	-0.067	0.516	1.774	-0.073	0.198	1.895	-0.073	0.159	1.791	0.148	0.783	1.760	0.143	0.539	1.811	0.103	0.229	1.927	0.105	0.185	1.809	0.070	1.282	1.733	-0.015	0.749	1.470	-0.021	0.790	1.596	0.507	0.708	1.727	0.499	0.746	1.687
